<?xml version="1.0" standalone="no"?>
<!DOCTYPE svg PUBLIC "-//W3C//DTD SVG 20010904//EN"
 "http://www.w3.org/TR/2001/REC-SVG-20010904/DTD/svg10.dtd">
<svg version="1.0" xmlns="http://www.w3.org/2000/svg"
 width="500.000000pt" height="500.000000pt" viewBox="0 0 500.000000 500.000000"
 preserveAspectRatio="xMidYMid meet">
<metadata>
Created by potrace 1.14, written by Peter Selinger 2001-2017
</metadata>
<g transform="translate(0.000000,500.000000) scale(0.100000,-0.100000)"
fill="#000000" stroke="none">
<path d="M1129 4996 c-2 -2 -26 -6 -54 -10 -83 -10 -106 -15 -205 -47 -457
-148 -782 -530 -858 -1009 -9 -57 -9 -2801 0 -2855 41 -253 133 -454 292 -640
47 -54 83 -90 155 -153 93 -81 268 -175 408 -221 181 -59 109 -56 1618 -56
765 0 1415 3 1445 7 109 15 260 62 372 118 124 61 216 128 318 230 106 105
120 122 167 195 18 28 36 55 41 60 11 13 69 136 93 197 17 44 51 166 66 240
11 52 13 2795 3 2858 -6 30 -12 72 -15 93 -3 21 -20 79 -36 130 -147 449 -526
774 -994 851 -76 13 -298 15 -1451 15 -749 1 -1363 -1 -1365 -3z"/>
</g>
</svg>
